<svg width="131" height="51" viewBox="0 0 131 51" fill="none" xmlns="http://www.w3.org/2000/svg">
<path d="M108.172 7.62659C103.574 9.91308 103.625 16.7914 108.003 19.304C111.841 21.5717 116.967 19.2035 117.607 14.7687C118.355 9.69951 112.877 5.31496 108.179 7.62659C108.179 7.6203 108.172 7.62659 108.172 7.62659Z" stroke="black" stroke-width="4.774" stroke-miterlimit="10"/>
<path d="M93.3856 42.2318C105.226 40.1777 102.331 31.3961 106.834 27.847C109.303 25.8997 114.536 25.5919 117.369 28.4186C121.515 32.5582 121.722 40.4667 121.716 45.0208" stroke="black" stroke-width="5.71624" stroke-miterlimit="10"/>
<path d="M2.18335 35.366C12.1271 35.5859 21.7065 36.6161 27.6049 28.9023C29.816 25.9311 31.0409 20.9498 28.3461 17.9284C27.0898 16.5276 25.2242 15.6167 23.3837 15.51C19.6713 15.2838 16.6812 18.01 14.602 20.8367C13.3834 22.4762 12.5291 24.3733 11.7879 26.2577C10.4688 29.5242 9.87829 33.1298 10.7012 36.6161C11.3105 39.2355 12.416 41.9743 14.8156 43.3059C18.2265 45.3035 27.3976 45.8186 35.3941 32.7655" stroke="black" stroke-width="5.71624" stroke-miterlimit="10"/>
<path d="M53.774 14.618V45.0899H48.039V41.9617C47.1972 43.2997 46.2362 44.2733 45.162 44.8826C44.0879 45.492 42.7499 45.7935 41.1481 45.7935C38.5098 45.7935 36.2924 44.7256 34.4896 42.5961C32.6868 40.4667 31.7885 37.7279 31.7885 34.3861C31.7885 30.5355 32.6742 27.5078 34.4456 25.2967C36.217 23.0918 38.5915 21.9863 41.5564 21.9863C42.9258 21.9863 44.1381 22.2878 45.1997 22.8845C46.2613 23.4876 47.1219 24.3167 47.7877 25.3783V14.618H53.774ZM37.8754 33.9527C37.8754 36.0382 38.29 37.6965 39.1191 38.9403C39.9357 40.1966 41.1732 40.8247 42.8441 40.8247C44.515 40.8247 45.7839 40.2029 46.6507 38.9591C47.5176 37.7154 47.9573 36.1073 47.9573 34.1349C47.9573 31.3772 47.2601 29.3985 45.8655 28.2113C45.0112 27.4952 44.0188 27.1372 42.8818 27.1372C41.1544 27.1372 39.8918 27.7905 39.0814 29.0907C38.2711 30.391 37.8754 32.0242 37.8754 33.9527Z" fill="black"/>
<path d="M74.855 45.0899L71.3185 28.6573L67.738 45.0962H61.6072L55.2753 22.5265H61.6072L65.1248 38.7141L68.3724 22.5265H74.3525L77.7885 38.7769L81.3062 22.5265H87.4559L80.9167 45.0899H74.855Z" fill="black"/>
<path d="M95.3769 14.3918V19.838H89.3969V14.3918H95.3769ZM95.3769 22.5265V45.0899H89.3969V22.5265H95.3769Z" fill="black"/>
</svg>
