<svg width="206" height="50" viewBox="0 0 206 50" fill="none" xmlns="http://www.w3.org/2000/svg">
<g clip-path="url(#clip0_1_1295)">
<path d="M11.6535 2.04193C21.0918 2.04193 27.1758 7.52791 28.2544 14.5952C28.312 14.9728 28.0298 15.3163 27.6477 15.3163H20.6348C20.3626 15.3163 20.1293 15.1348 20.0467 14.8757C18.8093 10.9924 15.4519 8.67865 11.712 8.67865C4.95281 8.67865 1.77875 13.6015 1.77875 21.6217C1.77875 29.7522 4.95281 34.5644 11.3009 34.5644C15.9574 34.5644 18.8583 32.1377 20.0567 27.8333C20.1316 27.5647 20.3707 27.3741 20.6498 27.3741H25.7501C26.0781 27.3741 26.3422 27.1159 26.3636 26.7883C26.7329 21.1893 30.1243 17.3541 39.0267 17.3541C43.3401 17.3541 46.3264 18.2648 48.2798 19.9877C48.6836 20.3439 49.3148 20.0776 49.3148 19.5394V2.34776C49.3148 1.05091 48.2635 0 46.9671 0H2.34776C1.05137 0 0 1.05137 0 2.34776V4.62565C0 5.12524 0.559034 5.4102 0.968328 5.12433C3.83882 3.12007 7.4485 2.04193 11.6535 2.04193Z" fill="#231F20"/>
<path d="M33.0311 39.102C33.0311 41.2769 34.3244 42.335 36.7343 42.335C40.6729 42.335 43.6115 39.4546 43.67 36.0455L43.7068 34.0566C43.7154 33.5997 43.2412 33.2898 42.8306 33.4903C41.9934 33.9001 40.7446 34.2095 38.7916 34.5757C34.4419 35.3988 33.0311 36.6331 33.0311 39.102Z" fill="#231F20"/>
<path d="M44.1229 46.5772C44.0466 46.2827 43.9799 45.9606 43.9255 45.6298C43.8493 45.1683 43.2957 44.9636 42.9363 45.2627C41.0795 46.8068 38.3574 47.801 35.0299 47.801C28.4468 47.801 25.3898 44.5684 25.3898 39.8661C25.3898 31.5196 30.9738 30.5789 38.6737 29.5212C42.4948 28.9917 43.5525 28.228 43.5525 26.2296C43.5525 24.3488 41.6717 23.2316 38.6737 23.2316C35.427 23.2316 33.9836 24.7259 33.5235 27.0391C33.4672 27.3223 33.2126 27.5229 32.924 27.5229H28.8071C28.5189 27.5229 28.2739 27.7248 28.2099 28.0057C26.3853 36.0032 20.3571 41.2569 11.536 41.2569C7.5329 41.2569 3.89963 40.2472 0.959252 38.2634C0.549505 37.9871 0 38.2738 0 38.768V47.6517C0 48.9486 1.05137 49.9995 2.34776 49.9995H46.9671C48.2639 49.9995 49.3148 48.9481 49.3148 47.6517C49.3148 47.3119 49.0394 47.0369 48.7 47.0369H44.7196C44.4387 47.0369 44.1937 46.849 44.1229 46.5772Z" fill="#231F20"/>
<path d="M40.1884 13.9703H39.4315V10.9864H38.3425V10.3548H41.2828V10.9864H40.1884V13.9703ZM44.9676 13.9703H44.2598V11.4928L43.5846 13.9703H42.8331L42.1634 11.5037V13.9703H41.461V10.3548H42.5718L43.2252 13.0065L43.8786 10.3548H44.9676V13.9703Z" fill="white"/>
<path d="M89.4068 29.6338C88.0287 36.393 82.9103 40.8694 75.3307 40.8694C66.7668 40.8694 60.2213 35.5427 60.2213 25.3357C60.2213 15.2636 66.078 9.13055 75.4291 9.13055C83.5996 9.13055 88.7675 13.8755 89.4068 19.8743H82.5654C81.6302 16.5173 78.7266 14.5026 75.4786 14.5026C69.8184 14.5026 67.1607 18.4867 67.1607 24.9777C67.1607 31.5586 69.8184 35.4528 75.1342 35.4528C79.1699 35.4528 81.6307 33.3487 82.5659 29.6338H89.4068Z" fill="#231F20"/>
<path d="M106.093 39.8398C105.896 39.3025 105.748 38.5416 105.699 37.8705C104.173 39.3924 101.614 40.422 98.3656 40.422C92.8533 40.422 90.2941 37.9598 90.2941 34.3783C90.2941 28.0216 94.9701 27.3055 101.418 26.4996C104.617 26.0967 105.503 25.515 105.503 23.9931C105.503 22.561 103.928 21.7102 101.418 21.7102C98.514 21.7102 97.3324 23.0084 97.037 24.9782H91.0818C91.1803 20.412 93.9369 17.2338 101.713 17.2338C109.391 17.2338 112.049 20.3671 112.049 25.9179V39.8398H106.094H106.093ZM105.65 29.0516C105.01 29.6333 103.878 29.9464 101.516 30.3494C97.8737 30.9765 96.6926 31.9166 96.6926 33.7961C96.6926 35.4528 97.7752 36.2582 99.7931 36.2582C103.091 36.2582 105.551 34.0648 105.6 31.4683L105.65 29.0511L105.65 29.0516Z" fill="#231F20"/>
<path d="M114.855 39.8398V9.7572H121.253V39.8398H114.855Z" fill="#231F20"/>
<path d="M124.108 15.1742V9.7572H130.506V15.1742H124.108ZM124.108 39.8398V17.8156H130.506V39.8398H124.108Z" fill="#231F20"/>
<path d="M150.193 39.8398L150.144 37.154C148.619 39.3924 146.355 40.422 143.402 40.422C137.298 40.422 132.918 36.035 132.918 28.6038C132.918 21.9335 136.61 17.2339 142.86 17.2339C145.863 17.2339 148.225 18.3533 150.046 20.6806V9.75769H156.346V39.8403L150.193 39.8398ZM150.291 29.3647C150.291 24.5748 148.471 22.2026 144.927 22.2026C141.186 22.2026 139.414 24.4854 139.414 29.0067C139.414 32.9463 141.678 35.677 144.878 35.677C147.929 35.677 150.291 33.0806 150.291 29.3647Z" fill="#231F20"/>
<path d="M174.311 39.8398C174.114 39.3025 173.966 38.5416 173.917 37.8705C172.391 39.3924 169.832 40.422 166.583 40.422C161.071 40.422 158.512 37.9598 158.512 34.3783C158.512 28.0216 163.188 27.3055 169.635 26.4996C172.834 26.0967 173.72 25.515 173.72 23.9931C173.72 22.561 172.146 21.7102 169.635 21.7102C166.732 21.7102 165.55 23.0084 165.255 24.9782H159.299C159.398 20.412 162.154 17.2338 169.931 17.2338C177.609 17.2338 180.266 20.3671 180.266 25.9179V39.8398H174.311H174.311ZM173.868 29.0516C173.228 29.6333 172.096 29.9464 169.733 30.3494C166.091 30.9765 164.91 31.9166 164.91 33.7961C164.91 35.4528 165.993 36.2582 168.011 36.2582C171.308 36.2582 173.769 34.0648 173.818 31.4683L173.867 29.0511L173.868 29.0516Z" fill="#231F20"/>
<path d="M199.855 39.8398L199.806 37.154C198.281 39.3924 196.017 40.422 193.063 40.422C186.96 40.422 182.58 36.035 182.58 28.6038C182.58 21.9335 186.272 17.2339 192.522 17.2339C195.525 17.2339 197.887 18.3533 199.708 20.6806V9.75769H206.008V39.8403L199.855 39.8398ZM199.954 29.3647C199.954 24.5748 198.133 22.2026 194.589 22.2026C190.849 22.2026 189.077 24.4854 189.077 29.0067C189.077 32.9463 191.341 35.677 194.54 35.677C197.592 35.677 199.954 33.0806 199.954 29.3647Z" fill="#231F20"/>
</g>
<defs>
<clipPath id="clip0_1_1295">
<rect width="206.008" height="50" fill="white"/>
</clipPath>
</defs>
</svg>
