<svg width="289" height="49" viewBox="0 0 289 49" fill="none" xmlns="http://www.w3.org/2000/svg">
<g clip-path="url(#clip0_1_1336)">
<path d="M29.6928 27.8025C29.6944 27.8025 29.696 27.8024 29.6975 27.8022H34.2898C35.0817 27.8022 35.7235 27.1604 35.7235 26.3684V19.7907C35.7235 18.9988 35.0817 18.3569 34.2898 18.3569H30.509C24.169 18.3569 18.7436 22.2651 16.5077 27.8022C16.18 28.6142 15.9239 29.4629 15.7405 30.3385C14.3081 30.2648 12.924 29.6432 11.9054 28.6078C10.8495 27.5344 10.2814 26.1376 10.3056 24.6756C10.3504 21.9633 12.3018 19.7076 14.9542 19.2698C15.0307 19.2571 15.1087 19.252 15.1862 19.252H19.663C20.5091 19.252 21.1951 18.5659 21.1951 17.7198V11.2109C21.1951 10.4353 21.8239 9.80651 22.5995 9.80651H29.0688C29.8444 9.80651 30.4732 9.17777 30.4732 8.40216V1.40435C30.4732 0.628742 29.8444 0 29.0688 0H22.0708C21.2952 0 20.6665 0.628742 20.6665 1.40435V8.2032C20.6665 8.9788 20.0378 9.60754 19.2621 9.60754H15.8811C9.65171 9.60754 4.11964 13.3395 1.78749 19.1151C1.0585 20.9214 0.688904 22.8334 0.688904 24.7983C0.688904 26.7633 1.05896 28.6765 1.78886 30.4829C4.11903 36.2583 9.65049 39.9904 15.8811 39.9904H16.9065C19.3427 45.0496 24.5165 48.5408 30.5088 48.5408H34.2896C35.0815 48.5408 35.7234 47.8988 35.7234 47.107V40.5292C35.7234 39.7373 35.0815 39.0955 34.2896 39.0955H30.6558C27.4813 39.0955 24.7813 36.4979 24.8337 33.3239C24.8801 30.51 26.9743 28.1937 29.6927 27.8025H29.6928Z" fill="black"/>
</g>
<path d="M69.2015 19.7524H66.4682C66.3066 18.9662 66.0237 18.2756 65.6196 17.6804C65.2228 17.0853 64.7379 16.5856 64.1648 16.1815C63.599 15.7701 62.9708 15.4615 62.2802 15.2557C61.5895 15.05 60.8695 14.9471 60.12 14.9471C58.7534 14.9471 57.5153 15.2925 56.4059 15.9831C55.3037 16.6738 54.4257 17.6914 53.7718 19.036C53.1252 20.3806 52.8019 22.0301 52.8019 23.9846C52.8019 25.939 53.1252 27.5885 53.7718 28.9331C54.4257 30.2777 55.3037 31.2953 56.4059 31.986C57.5153 32.6766 58.7534 33.022 60.12 33.022C60.8695 33.022 61.5895 32.9191 62.2802 32.7134C62.9708 32.5076 63.599 32.2027 64.1648 31.7986C64.7379 31.3871 65.2228 30.8838 65.6196 30.2887C66.0237 29.6862 66.3066 28.9955 66.4682 28.2167H69.2015C68.9958 29.3703 68.6211 30.4026 68.0773 31.3137C67.5336 32.2248 66.8577 32.9999 66.0494 33.6392C65.2412 34.271 64.3338 34.7523 63.3272 35.0829C62.3279 35.4136 61.2589 35.5789 60.12 35.5789C58.195 35.5789 56.483 35.1086 54.9841 34.1682C53.4852 33.2277 52.306 31.8904 51.4463 30.1564C50.5866 28.4224 50.1568 26.3651 50.1568 23.9846C50.1568 21.604 50.5866 19.5467 51.4463 17.8127C52.306 16.0787 53.4852 14.7414 54.9841 13.8009C56.483 12.8605 58.195 12.3902 60.12 12.3902C61.2589 12.3902 62.3279 12.5555 63.3272 12.8862C64.3338 13.2168 65.2412 13.7017 66.0494 14.341C66.8577 14.9729 67.5336 15.7443 68.0773 16.6554C68.6211 17.5592 68.9958 18.5915 69.2015 19.7524ZM76.385 35.6671C75.3123 35.6671 74.3388 35.465 73.4644 35.0609C72.5901 34.6494 71.8957 34.058 71.3814 33.2865C70.8671 32.5076 70.6099 31.5672 70.6099 30.465C70.6099 29.4952 70.8009 28.709 71.183 28.1065C71.5651 27.4967 72.0757 27.0191 72.715 26.6737C73.3542 26.3284 74.0596 26.0712 74.831 25.9022C75.6099 25.7259 76.3924 25.5863 77.1786 25.4834C78.2072 25.3512 79.0412 25.252 79.6804 25.1859C80.327 25.1124 80.7972 24.9912 81.0911 24.8222C81.3924 24.6532 81.543 24.3593 81.543 23.9405V23.8523C81.543 22.7649 81.2454 21.9199 80.6503 21.3174C80.0625 20.7149 79.1697 20.4137 77.9721 20.4137C76.7304 20.4137 75.7568 20.6855 75.0515 21.2292C74.3461 21.773 73.8502 22.3534 73.5636 22.9706L71.0948 22.0889C71.5357 21.0603 72.1235 20.2594 72.8582 19.6863C73.6003 19.1058 74.4086 18.7017 75.2829 18.4739C76.1646 18.2388 77.0316 18.1213 77.8839 18.1213C78.4276 18.1213 79.0522 18.1874 79.7575 18.3196C80.4702 18.4445 81.1572 18.7054 81.8185 19.1021C82.4871 19.4989 83.0419 20.0977 83.4827 20.8986C83.9236 21.6995 84.144 22.7722 84.144 24.1168V35.2703H81.543V32.9779H81.4107C81.2344 33.3453 80.9405 33.7383 80.529 34.1571C80.1176 34.576 79.5702 34.9323 78.8869 35.2262C78.2035 35.5201 77.3696 35.6671 76.385 35.6671ZM76.7818 33.3306C77.8104 33.3306 78.6775 33.1285 79.3828 32.7244C80.0955 32.3203 80.6319 31.7986 80.9919 31.1594C81.3593 30.5201 81.543 29.8478 81.543 29.1425V26.7619C81.4328 26.8942 81.1903 27.0154 80.8156 27.1256C80.4482 27.2285 80.022 27.3203 79.5371 27.4011C79.0595 27.4746 78.593 27.5407 78.1374 27.5995C77.6892 27.6509 77.3255 27.695 77.0463 27.7318C76.3703 27.8199 75.7385 27.9632 75.1507 28.1616C74.5702 28.3526 74.1 28.6429 73.7399 29.0323C73.3873 29.4143 73.2109 29.936 73.2109 30.5973C73.2109 31.501 73.5452 32.1843 74.2139 32.6472C74.8898 33.1028 75.7458 33.3306 76.7818 33.3306ZM87.0292 35.2703V18.3417H89.5421V20.8986H89.7184C90.027 20.061 90.5854 19.3814 91.3936 18.8597C92.2019 18.338 93.113 18.0772 94.1269 18.0772C94.3179 18.0772 94.5567 18.0808 94.8433 18.0882C95.1298 18.0955 95.3466 18.1066 95.4935 18.1213V20.7664C95.4054 20.7443 95.2033 20.7112 94.8874 20.6672C94.5788 20.6157 94.2518 20.59 93.9065 20.59C93.0836 20.59 92.3488 20.7627 91.7022 21.108C91.063 21.446 90.556 21.9162 90.1813 22.5187C89.8139 23.1139 89.6302 23.7935 89.6302 24.5577V35.2703H87.0292ZM103.033 41.9712C101.776 41.9712 100.696 41.8096 99.7923 41.4863C98.8885 41.1703 98.1354 40.7515 97.5329 40.2298C96.9378 39.7155 96.4638 39.1645 96.1112 38.5767L98.1832 37.1219C98.4183 37.4305 98.7159 37.7831 99.0759 38.1799C99.4359 38.584 99.9282 38.933 100.553 39.2269C101.185 39.5282 102.011 39.6788 103.033 39.6788C104.399 39.6788 105.527 39.3482 106.416 38.6869C107.305 38.0256 107.75 36.9896 107.75 35.5789V32.1403H107.529C107.338 32.4489 107.066 32.8309 106.714 33.2865C106.368 33.7347 105.869 34.1351 105.215 34.4878C104.568 34.8331 103.694 35.0058 102.592 35.0058C101.225 35.0058 99.998 34.6825 98.9106 34.0359C97.8305 33.3893 96.9745 32.4489 96.3426 31.2145C95.7181 29.9801 95.4058 28.4812 95.4058 26.7178C95.4058 24.9838 95.7107 23.4739 96.3206 22.1881C96.9304 20.8949 97.779 19.8957 98.8665 19.1903C99.9539 18.4776 101.21 18.1213 102.636 18.1213C103.738 18.1213 104.612 18.3049 105.259 18.6723C105.913 19.0323 106.412 19.4438 106.758 19.9067C107.11 20.3622 107.382 20.737 107.573 21.0309H107.838V18.3417H110.351V35.7552C110.351 37.21 110.02 38.393 109.359 39.3041C108.705 40.2225 107.823 40.8948 106.714 41.321C105.611 41.7545 104.384 41.9712 103.033 41.9712ZM102.944 32.6693C103.988 32.6693 104.869 32.4305 105.589 31.9529C106.309 31.4753 106.857 30.7883 107.232 29.8919C107.606 28.9955 107.794 27.9228 107.794 26.6737C107.794 25.454 107.61 24.3776 107.243 23.4445C106.875 22.5114 106.332 21.7803 105.611 21.2513C104.891 20.7223 104.002 20.4578 102.944 20.4578C101.842 20.4578 100.924 20.737 100.189 21.2954C99.4616 21.8538 98.9142 22.6032 98.5469 23.5437C98.1868 24.4842 98.0068 25.5275 98.0068 26.6737C98.0068 27.8493 98.1905 28.889 98.5579 29.7927C98.9326 30.6891 99.4837 31.3945 100.211 31.9088C100.946 32.4158 101.857 32.6693 102.944 32.6693ZM120.127 35.623C118.599 35.623 117.258 35.2593 116.104 34.5319C114.958 33.8045 114.062 32.7868 113.415 31.479C112.776 30.1711 112.456 28.6429 112.456 26.8942C112.456 25.1308 112.776 23.5915 113.415 22.2763C114.062 20.9611 114.958 19.9398 116.104 19.2124C117.258 18.485 118.599 18.1213 120.127 18.1213C121.655 18.1213 122.992 18.485 124.139 19.2124C125.292 19.9398 126.189 20.9611 126.828 22.2763C127.474 23.5915 127.798 25.1308 127.798 26.8942C127.798 28.6429 127.474 30.1711 126.828 31.479C126.189 32.7868 125.292 33.8045 124.139 34.5319C122.992 35.2593 121.655 35.623 120.127 35.623ZM120.127 33.2865C121.288 33.2865 122.243 32.9889 122.992 32.3938C123.742 31.7986 124.297 31.0161 124.657 30.0462C125.017 29.0764 125.197 28.0257 125.197 26.8942C125.197 25.7626 125.017 24.7083 124.657 23.7311C124.297 22.7538 123.742 21.964 122.992 21.3615C122.243 20.759 121.288 20.4578 120.127 20.4578C118.966 20.4578 118.011 20.759 117.261 21.3615C116.512 21.964 115.957 22.7538 115.597 23.7311C115.237 24.7083 115.057 25.7626 115.057 26.8942C115.057 28.0257 115.237 29.0764 115.597 30.0462C115.957 31.0161 116.512 31.7986 117.261 32.3938C118.011 32.9889 118.966 33.2865 120.127 33.2865ZM139.374 25.0867V35.2703H136.773V18.3417H139.285V20.9868H139.506C139.903 20.1271 140.505 19.4365 141.313 18.9148C142.122 18.3858 143.165 18.1213 144.443 18.1213C145.59 18.1213 146.592 18.3564 147.452 18.8266C148.312 19.2895 148.98 19.9949 149.458 20.9427C149.936 21.8832 150.174 23.0735 150.174 24.5136V35.2703H147.573V24.6899C147.573 23.36 147.228 22.324 146.537 21.5819C145.847 20.8325 144.899 20.4578 143.694 20.4578C142.864 20.4578 142.122 20.6378 141.468 20.9978C140.821 21.3578 140.31 21.8832 139.936 22.5738C139.561 23.2645 139.374 24.1021 139.374 25.0867ZM178.447 19.7524H175.714C175.553 18.9662 175.27 18.2756 174.866 17.6804C174.469 17.0853 173.984 16.5856 173.411 16.1815C172.845 15.7701 172.217 15.4615 171.526 15.2557C170.835 15.05 170.115 14.9471 169.366 14.9471C167.999 14.9471 166.761 15.2925 165.652 15.9831C164.55 16.6738 163.672 17.6914 163.018 19.036C162.371 20.3806 162.048 22.0301 162.048 23.9846C162.048 25.939 162.371 27.5885 163.018 28.9331C163.672 30.2777 164.55 31.2953 165.652 31.986C166.761 32.6766 167.999 33.022 169.366 33.022C170.115 33.022 170.835 32.9191 171.526 32.7134C172.217 32.5076 172.845 32.2027 173.411 31.7986C173.984 31.3871 174.469 30.8838 174.866 30.2887C175.27 29.6862 175.553 28.9955 175.714 28.2167H178.447C178.242 29.3703 177.867 30.4026 177.323 31.3137C176.78 32.2248 176.104 32.9999 175.295 33.6392C174.487 34.271 173.58 34.7523 172.573 35.0829C171.574 35.4136 170.505 35.5789 169.366 35.5789C167.441 35.5789 165.729 35.1086 164.23 34.1682C162.731 33.2277 161.552 31.8904 160.692 30.1564C159.833 28.4224 159.403 26.3651 159.403 23.9846C159.403 21.604 159.833 19.5467 160.692 17.8127C161.552 16.0787 162.731 14.7414 164.23 13.8009C165.729 12.8605 167.441 12.3902 169.366 12.3902C170.505 12.3902 171.574 12.5555 172.573 12.8862C173.58 13.2168 174.487 13.7017 175.295 14.341C176.104 14.9729 176.78 15.7443 177.323 16.6554C177.867 17.5592 178.242 18.5915 178.447 19.7524ZM191.318 28.349V18.3417H193.919V35.2703H191.318V32.4048H191.142C190.745 33.2644 190.128 33.9955 189.29 34.598C188.452 35.1931 187.394 35.4907 186.116 35.4907C185.058 35.4907 184.117 35.2593 183.295 34.7964C182.472 34.3261 181.825 33.6208 181.355 32.6803C180.885 31.7325 180.649 30.5385 180.649 29.0984V18.3417H183.25V28.9221C183.25 30.1564 183.596 31.141 184.286 31.8758C184.984 32.6105 185.873 32.9779 186.954 32.9779C187.6 32.9779 188.258 32.8126 188.926 32.4819C189.602 32.1513 190.168 31.6443 190.624 30.961C191.087 30.2777 191.318 29.407 191.318 28.349ZM208.812 22.133L206.475 22.7943C206.328 22.4048 206.112 22.0264 205.825 21.6591C205.546 21.2844 205.164 20.9758 204.679 20.7333C204.194 20.4908 203.573 20.3696 202.816 20.3696C201.78 20.3696 200.917 20.6084 200.226 21.086C199.543 21.5562 199.201 22.155 199.201 22.8824C199.201 23.529 199.436 24.0397 199.907 24.4144C200.377 24.7891 201.112 25.1014 202.111 25.3512L204.624 25.9684C206.137 26.3357 207.265 26.8978 208.007 27.6546C208.749 28.4041 209.12 29.3703 209.12 30.5532C209.12 31.5231 208.841 32.3901 208.283 33.1542C207.732 33.9184 206.96 34.5209 205.968 34.9617C204.976 35.4025 203.823 35.623 202.508 35.623C200.781 35.623 199.352 35.2483 198.22 34.4988C197.089 33.7494 196.373 32.6546 196.071 31.2145L198.54 30.5973C198.775 31.5084 199.22 32.1917 199.874 32.6472C200.535 33.1028 201.398 33.3306 202.464 33.3306C203.676 33.3306 204.638 33.0734 205.351 32.5591C206.071 32.0374 206.431 31.4129 206.431 30.6855C206.431 30.0977 206.226 29.6054 205.814 29.2086C205.403 28.8045 204.771 28.5033 203.918 28.3049L201.097 27.6436C199.547 27.2762 198.408 26.7068 197.68 25.9353C196.96 25.1565 196.6 24.1829 196.6 23.0147C196.6 22.0595 196.869 21.2145 197.405 20.4798C197.949 19.7451 198.687 19.1683 199.62 18.7495C200.561 18.3307 201.626 18.1213 202.816 18.1213C204.492 18.1213 205.807 18.4886 206.762 19.2234C207.724 19.9581 208.408 20.928 208.812 22.133ZM218.536 18.3417V20.5459H209.763V18.3417H218.536ZM212.32 14.2859H214.921V30.421C214.921 31.1557 215.027 31.7068 215.24 32.0741C215.461 32.4342 215.74 32.6766 216.078 32.8015C216.423 32.9191 216.787 32.9779 217.169 32.9779C217.456 32.9779 217.691 32.9632 217.875 32.9338C218.058 32.8971 218.205 32.8677 218.315 32.8456L218.844 35.1821C218.668 35.2483 218.422 35.3144 218.106 35.3805C217.79 35.454 217.39 35.4907 216.905 35.4907C216.17 35.4907 215.45 35.3327 214.744 35.0168C214.046 34.7009 213.466 34.2196 213.003 33.573C212.548 32.9264 212.32 32.1109 212.32 31.1263V14.2859ZM227.282 35.623C225.753 35.623 224.412 35.2593 223.259 34.5319C222.113 33.8045 221.216 32.7868 220.57 31.479C219.93 30.1711 219.611 28.6429 219.611 26.8942C219.611 25.1308 219.93 23.5915 220.57 22.2763C221.216 20.9611 222.113 19.9398 223.259 19.2124C224.412 18.485 225.753 18.1213 227.282 18.1213C228.81 18.1213 230.147 18.485 231.293 19.2124C232.447 19.9398 233.343 20.9611 233.982 22.2763C234.629 23.5915 234.952 25.1308 234.952 26.8942C234.952 28.6429 234.629 30.1711 233.982 31.479C233.343 32.7868 232.447 33.8045 231.293 34.5319C230.147 35.2593 228.81 35.623 227.282 35.623ZM227.282 33.2865C228.442 33.2865 229.398 32.9889 230.147 32.3938C230.897 31.7986 231.451 31.0161 231.811 30.0462C232.171 29.0764 232.351 28.0257 232.351 26.8942C232.351 25.7626 232.171 24.7083 231.811 23.7311C231.451 22.7538 230.897 21.964 230.147 21.3615C229.398 20.759 228.442 20.4578 227.282 20.4578C226.121 20.4578 225.166 20.759 224.416 21.3615C223.667 21.964 223.112 22.7538 222.752 23.7311C222.392 24.7083 222.212 25.7626 222.212 26.8942C222.212 28.0257 222.392 29.0764 222.752 30.0462C223.112 31.0161 223.667 31.7986 224.416 32.3938C225.166 32.9889 226.121 33.2865 227.282 33.2865ZM237.061 35.2703V18.3417H239.573V20.9868H239.794C240.147 20.083 240.716 19.3814 241.502 18.8817C242.288 18.3747 243.232 18.1213 244.335 18.1213C245.451 18.1213 246.381 18.3747 247.123 18.8817C247.872 19.3814 248.457 20.083 248.875 20.9868H249.052C249.485 20.1124 250.135 19.4181 251.002 18.9038C251.869 18.3821 252.909 18.1213 254.121 18.1213C255.635 18.1213 256.873 18.5952 257.836 19.543C258.798 20.4835 259.279 21.9493 259.279 23.9405V35.2703H256.678V23.9405C256.678 22.6914 256.337 21.7987 255.653 21.2623C254.97 20.7259 254.166 20.4578 253.24 20.4578C252.049 20.4578 251.127 20.8178 250.473 21.5378C249.82 22.2505 249.493 23.1543 249.493 24.2491V35.2703H246.847V23.676C246.847 22.7134 246.535 21.9383 245.911 21.3505C245.286 20.7553 244.482 20.4578 243.497 20.4578C242.821 20.4578 242.189 20.6378 241.601 20.9978C241.021 21.3578 240.551 21.8575 240.191 22.4967C239.838 23.1286 239.662 23.8596 239.662 24.6899V35.2703H237.061ZM269.271 35.623C267.639 35.623 266.232 35.2629 265.049 34.5429C263.874 33.8155 262.966 32.8015 262.327 31.501C261.695 30.1932 261.379 28.6722 261.379 26.9382C261.379 25.2042 261.695 23.676 262.327 22.3534C262.966 21.0235 263.856 19.9875 264.994 19.2454C266.141 18.496 267.478 18.1213 269.006 18.1213C269.888 18.1213 270.758 18.2682 271.618 18.5621C272.478 18.856 273.26 19.3336 273.966 19.9949C274.671 20.6488 275.233 21.5158 275.652 22.5959C276.071 23.676 276.28 25.0059 276.28 26.5856V27.6877H263.231V25.4394H273.635C273.635 24.4842 273.444 23.6319 273.062 22.8824C272.687 22.133 272.151 21.5415 271.453 21.108C270.762 20.6745 269.947 20.4578 269.006 20.4578C267.97 20.4578 267.074 20.7149 266.317 21.2292C265.567 21.7362 264.991 22.3975 264.587 23.2131C264.182 24.0286 263.98 24.903 263.98 25.8361V27.335C263.98 28.6135 264.201 29.6972 264.642 30.5863C265.09 31.468 265.711 32.1403 266.504 32.6032C267.298 33.0587 268.22 33.2865 269.271 33.2865C269.954 33.2865 270.571 33.191 271.122 32.9999C271.681 32.8015 272.162 32.5076 272.566 32.1182C272.97 31.7215 273.282 31.2292 273.503 30.6414L276.016 31.3467C275.751 32.199 275.307 32.9485 274.682 33.5951C274.057 34.2343 273.286 34.7339 272.368 35.094C271.449 35.4466 270.417 35.623 269.271 35.623ZM278.375 35.2703V18.3417H280.887V20.8986H281.064C281.372 20.061 281.931 19.3814 282.739 18.8597C283.547 18.338 284.458 18.0772 285.472 18.0772C285.663 18.0772 285.902 18.0808 286.189 18.0882C286.475 18.0955 286.692 18.1066 286.839 18.1213V20.7664C286.751 20.7443 286.549 20.7112 286.233 20.6672C285.924 20.6157 285.597 20.59 285.252 20.59C284.429 20.59 283.694 20.7627 283.048 21.108C282.408 21.446 281.901 21.9162 281.527 22.5187C281.159 23.1139 280.976 23.7935 280.976 24.5577V35.2703H278.375Z" fill="black"/>
<defs>
<clipPath id="clip0_1_1336">
<rect width="35.0345" height="48.5406" fill="white" transform="translate(0.689331)"/>
</clipPath>
</defs>
</svg>
