<svg width="253" height="50" viewBox="0 0 253 50" fill="none" xmlns="http://www.w3.org/2000/svg">
<g clip-path="url(#clip0_1_1321)">
<path d="M45.4155 0H12.8404V11.4752H32.583V30.2303H45.4155V0Z" fill="black"/>
<path d="M0.00775146 11.7221V42.3229H32.5829V30.2303H12.8403V11.4751H0.0333725" fill="black"/>
<path d="M51.3381 35.6599H37.7651V49.2329H51.3381V35.6599Z" fill="black"/>
<path d="M99.4826 20.4624V21.5764C99.2561 26.5156 97.9643 30.4858 95.6087 33.4886C94.1232 35.361 92.3236 36.7651 90.2099 37.7012C88.0951 38.6369 85.7948 39.1053 83.3091 39.1053C80.7588 39.1053 78.4016 38.6287 76.2397 37.6767C74.0768 36.7251 72.3335 35.3282 71.0099 33.4886C68.4919 30.3895 67.2006 26.2092 67.136 20.9471C67.2006 15.7502 68.4919 11.5693 71.0099 8.40562C72.333 6.56603 74.0763 5.16968 76.2397 4.21709C78.4016 3.26552 80.7588 2.78897 83.3091 2.78897C85.8271 2.78897 88.1433 3.26552 90.258 4.21709C92.3718 5.16968 94.156 6.56603 95.6087 8.40562C96.2221 9.1804 96.7868 10.0689 97.3038 11.0687L93.6718 12.7151C93.1553 11.8117 92.7679 11.1819 92.5096 10.8263C91.476 9.43917 90.1443 8.38102 88.5143 7.65441C86.8837 6.92831 85.1492 6.565 83.3086 6.565C81.468 6.565 79.7252 6.93651 78.0788 7.67849C76.4324 8.42202 75.1088 9.47043 74.1081 10.8263C72.3325 13.0538 71.3799 16.4271 71.2513 20.9466C71.3794 25.4667 72.3325 28.8394 74.1081 31.0664C75.1083 32.4223 76.4324 33.4722 78.0788 34.2142C79.7252 34.9572 81.4685 35.3282 83.3086 35.3282C85.1487 35.3282 86.8837 34.9649 88.5143 34.2383C90.1443 33.5122 91.4755 32.4556 92.5096 31.0664C93.8967 29.1295 94.7525 26.7088 95.0758 23.8034H86.2632V20.4624H99.4826Z" fill="black"/>
<path d="M120.158 12.0367V15.7651C118.867 15.3137 117.56 15.1353 116.237 15.2327C114.106 15.2978 112.427 15.9434 111.201 17.1697C110.135 18.1704 109.465 19.3085 109.191 20.5834C108.916 21.8588 108.78 23.578 108.78 25.7404V38.3783H104.809V12.2304H108.343V16.1043C108.859 15.2009 109.602 14.3611 110.571 13.5863C112.185 12.2632 114.17 11.5689 116.527 11.5043C117.883 11.5043 119.093 11.6816 120.158 12.0367Z" fill="black"/>
<path d="M123.451 17.1215C123.742 16.6054 123.999 16.2181 124.226 15.9593C126.421 13.0221 129.617 11.5525 133.814 11.5525C136.299 11.5525 138.462 12.029 140.303 12.9806C142.142 13.9332 143.514 15.3946 144.418 17.3628C145.096 18.751 145.435 20.3005 145.435 22.011V38.3777H141.949V33.1966C141.497 34.101 140.851 34.9399 140.012 35.7147C139.172 36.4894 138.285 37.1028 137.348 37.5548C135.122 38.6518 132.877 39.1361 130.618 39.0075C129.294 38.9424 128.019 38.596 126.793 37.9662C125.565 37.3365 124.597 36.5217 123.887 35.521C123.371 34.7144 122.983 33.9391 122.725 33.1961C122.466 32.4541 122.338 31.6307 122.338 30.7267C122.338 29.3709 122.677 28.1119 123.354 26.9497C124.033 25.7875 124.968 24.836 126.163 24.0929C127.26 23.4796 128.373 23.044 129.504 22.7852C130.634 22.527 132.248 22.237 134.347 21.9136L135.944 21.6718L141.368 20.9451C141.109 19.1701 140.367 17.8142 139.14 16.8775C137.849 15.8117 136.058 15.2793 133.766 15.2793C132.507 15.2793 131.344 15.4976 130.28 15.9331C129.214 16.3692 128.358 17.04 127.713 17.9429C127.551 18.1366 127.341 18.4271 127.084 18.8145L123.452 17.1199L123.451 17.1215ZM135.169 25.3043C133.297 25.5948 131.763 25.9018 130.569 26.2241C129.374 26.5474 128.366 27.0558 127.543 27.7496C126.72 28.4444 126.308 29.4047 126.308 30.6309C126.308 31.8259 126.776 32.8825 127.712 33.8028C128.648 34.7226 129.794 35.2478 131.15 35.3765C131.311 35.4093 131.569 35.4251 131.925 35.4251C133.635 35.4251 135.314 34.9573 136.961 34.0211C138.607 33.0854 139.785 31.8423 140.495 30.2922C140.947 29.3242 141.229 28.4203 141.343 27.5805C141.455 26.7416 141.512 25.6435 141.512 24.2877L135.169 25.3043Z" fill="black"/>
<path d="M168.289 20.0269C167.999 19.2204 167.563 18.4697 166.982 17.7753C166.401 17.0815 165.739 16.5404 164.996 16.153C163.866 15.5724 162.462 15.2814 160.784 15.2814C159.428 15.2814 158.249 15.5238 157.249 16.008C156.669 16.3313 156.2 16.7346 155.845 17.2188C155.49 17.7026 155.313 18.2037 155.313 18.7197C155.313 19.4945 155.587 20.1566 156.136 20.7054C156.717 21.2864 157.814 21.8035 159.428 22.2549C160.397 22.5455 162.059 22.9979 164.416 23.6108C165.513 23.9013 166.457 24.2242 167.249 24.5788C168.04 24.9349 168.79 25.4186 169.5 26.0315C171.34 27.517 172.261 29.2756 172.261 31.3094C172.261 32.5367 171.953 33.6824 171.341 34.7472C170.727 35.8131 169.904 36.6847 168.871 37.3621C167.128 38.492 164.69 39.0567 161.559 39.0567C157.814 39.0567 154.893 37.9432 152.795 35.7157C152.084 34.9092 151.495 33.9725 151.027 32.9071C150.559 31.8418 150.228 30.8093 150.035 29.8085L153.86 28.8882C153.957 29.663 154.158 30.4306 154.465 31.1885C154.772 31.9479 155.168 32.6012 155.652 33.15C156.975 34.6027 158.928 35.3288 161.511 35.3288C162.479 35.3288 163.44 35.2248 164.392 35.0142C165.343 34.8041 166.111 34.5059 166.692 34.118C167.531 33.5051 168.032 32.6494 168.193 31.5518C168.29 30.4865 167.919 29.6148 167.079 28.9374C166.692 28.5823 166.224 28.2836 165.675 28.0417C165.127 27.7998 164.336 27.5175 163.303 27.1941C162.559 26.9687 161.043 26.5485 158.751 25.9351C157.589 25.6128 156.612 25.2895 155.822 24.9667C155.03 24.6443 154.296 24.2088 153.619 23.6595C152.843 23.0466 152.255 22.3123 151.851 21.4566C151.447 20.6019 151.246 19.7056 151.246 18.7694C151.246 17.4459 151.658 16.2196 152.481 15.0892C153.304 13.9593 154.345 13.1036 155.604 12.523C157.122 11.8446 158.849 11.5064 160.785 11.5064C163.045 11.5064 165.03 11.9261 166.741 12.7649C168 13.411 169.121 14.315 170.106 15.4766C171.091 16.6388 171.777 17.8491 172.164 19.1081L168.291 20.0285L168.289 20.0269Z" fill="black"/>
<path d="M201.653 25.2562C201.653 29.2592 200.7 32.4711 198.795 34.8923C197.73 36.2476 196.406 37.2889 194.825 38.0155C193.243 38.7421 191.548 39.1054 189.74 39.1054C188.029 39.1054 186.455 38.8061 185.02 38.2097C183.583 37.6127 182.348 36.7493 181.315 35.6189V50.0005H177.344V12.2304H180.879V15.5233C181.912 14.2642 183.22 13.2804 184.801 12.5697C186.383 11.86 188.046 11.5043 189.789 11.5043C191.596 11.5043 193.283 11.8671 194.849 12.5937C196.415 13.3204 197.73 14.3611 198.795 15.7169C200.7 18.1381 201.652 21.3177 201.652 25.2562H201.653ZM197.488 25.2562C197.488 22.2221 196.859 19.8327 195.599 18.0895C194.889 17.0897 193.978 16.3467 192.864 15.8625C191.75 15.3782 190.515 15.1359 189.159 15.1359C187.868 15.1359 186.69 15.3706 185.625 15.8384C184.559 16.3067 183.671 16.9929 182.962 17.8963C181.573 19.6395 180.879 22.093 180.879 25.2567C180.879 28.4527 181.573 30.922 182.962 32.6653C183.671 33.5692 184.584 34.2635 185.697 34.7472C186.811 35.2315 187.998 35.4739 189.257 35.4739C190.516 35.4739 191.71 35.2156 192.841 34.6991C193.97 34.1831 194.89 33.4242 195.601 32.4234C196.86 30.777 197.489 28.3886 197.489 25.2572L197.488 25.2562Z" fill="black"/>
<path d="M213.565 3.51465V38.3788H206.979V3.51465H213.565Z" fill="black"/>
<path d="M251.769 27.3622C251.219 29.2838 250.365 31.0353 249.203 32.6166L251.624 35.0378L247.604 39.1054L245.038 36.5392C242.326 38.2502 239.243 39.1054 235.789 39.1054C233.239 39.1054 230.834 38.613 228.575 37.6281C226.315 36.6442 224.442 35.231 222.957 33.3914C221.602 31.745 220.585 29.8567 219.907 27.7255C219.229 25.5949 218.89 23.3356 218.89 20.9467C218.89 18.5578 219.23 16.2909 219.907 14.1433C220.585 11.9973 221.602 10.1003 222.957 8.4539C224.442 6.58151 226.306 5.16928 228.55 4.21669C230.793 3.26513 233.206 2.78857 235.789 2.78857C238.372 2.78857 240.776 3.27281 243.004 4.24129C245.231 5.20976 247.103 6.61431 248.621 8.45441C250.009 10.1654 251.018 12.0542 251.647 14.1197C252.277 16.1863 252.623 18.4615 252.689 20.9472C252.624 23.3044 252.317 25.4427 251.769 27.3622ZM240.389 31.89L237.436 28.9846L241.503 24.917L244.361 27.7742C245.264 25.9669 245.716 23.6907 245.716 20.9467C245.716 17.3316 244.941 14.5066 243.392 12.4728C242.552 11.3429 241.479 10.48 240.172 9.88253C238.864 9.28556 237.468 8.98682 235.983 8.98682C234.369 8.98682 232.876 9.27736 231.504 9.85845C230.131 10.439 229.026 11.3112 228.187 12.4728C226.669 14.4098 225.878 17.2347 225.814 20.9467C225.878 24.6269 226.669 27.4519 228.187 29.4206C229.026 30.551 230.124 31.4227 231.479 32.035C232.835 32.6484 234.272 32.9389 235.789 32.9066C237.435 32.9717 238.969 32.6325 240.389 31.89Z" fill="black"/>
</g>
<defs>
<clipPath id="clip0_1_1321">
<rect width="252.682" height="50" fill="white" transform="translate(0.0078125)"/>
</clipPath>
</defs>
</svg>
