<svg width="300" height="272" viewBox="0 0 300 272" fill="none" xmlns="http://www.w3.org/2000/svg">
<path fill-rule="evenodd" clip-rule="evenodd" d="M186.453 144.367C192.12 133.374 195.132 120.044 195.132 104.425C195.132 60.8169 168.089 28.6308 126.09 28.6308C84.0919 28.6308 50.0454 63.9822 50.0454 107.59C50.0454 121.391 54.3768 134.469 61.5398 145.68C52.8347 149.464 47.2029 158.576 48.2737 168.511C48.2949 168.708 48.3185 168.903 48.3446 169.098C39.8249 172.207 34.1879 180.813 35.2035 190.236C35.4262 192.302 35.9531 194.262 36.7348 196.075L21.0649 202.429C16.1182 204.435 15.174 211.032 19.3593 214.345L36.5511 227.954C40.7364 231.267 46.94 228.834 47.757 223.559L50.2239 207.631C52.5175 208.225 54.9552 208.422 57.4501 208.153C67.8945 207.027 75.6173 198.129 75.484 187.833C83.0954 186.073 89.0605 180.483 91.5112 173.383C104.281 180.161 118.63 183.127 132.471 180.691C140.646 179.253 148.137 176.993 154.875 173.92C157.938 179.421 163.278 183.541 169.741 184.901C169.812 195.198 177.71 203.941 188.175 204.859C188.962 204.928 189.742 204.951 190.512 204.93L193.088 219.623C194.009 224.881 200.26 227.19 204.379 223.795L221.297 209.847C225.416 206.451 224.34 199.875 219.355 197.968L208.072 193.651C209.143 191.474 209.837 189.065 210.061 186.503C210.89 177.063 205.083 168.57 196.503 165.63C196.525 165.435 196.545 165.24 196.562 165.043C197.31 156.526 193.164 148.709 186.453 144.367Z" fill="#4D4D4D"/>
<path d="M198.152 197.793L190.673 199.368C189.155 199.688 188.502 201.494 189.466 202.71L193.945 208.366C194.908 209.583 196.815 209.362 197.474 207.957L200.722 201.039L208.201 199.463C209.72 199.143 210.372 197.338 209.408 196.121L204.93 190.465C203.966 189.249 202.06 189.47 201.4 190.874L198.152 197.793Z" fill="white" fill-opacity="0.4"/>
<path d="M42.3798 203.201C42.3978 203.25 42.4176 203.299 42.4395 203.347L45.0874 209.237C45.7187 210.641 47.5999 210.904 48.5915 209.726L52.1981 205.443C53.1896 204.265 52.6106 202.456 51.1196 202.073L44.8651 200.467C44.8134 200.454 44.7619 200.442 44.7106 200.433C44.6927 200.384 44.6728 200.335 44.6509 200.287L42.003 194.397C41.3718 192.993 39.4905 192.73 38.499 193.908L34.8924 198.191C33.9008 199.369 34.4798 201.178 35.9709 201.561L42.2253 203.167C42.2771 203.18 42.3286 203.192 42.3798 203.201Z" fill="white" fill-opacity="0.4"/>
<rect x="98.206" y="128.926" width="47.5108" height="89.2431" rx="9.59556" fill="white" stroke="#4D4D4D" stroke-width="2.78599" stroke-linecap="round"/>
<path d="M99.5267 186.481V157.955H147.309C143.71 172.583 122.252 187.271 99.5267 186.481Z" fill="#7E7E7E" fill-opacity="0.45"/>
<path d="M91.9376 125.792C91.9376 133.933 84.5894 140.767 75.2216 140.767C65.8539 140.767 58.5057 133.933 58.5057 125.792C58.5057 117.651 65.8539 110.817 75.2216 110.817C84.5894 110.817 91.9376 117.651 91.9376 125.792Z" fill="white" stroke="#4D4D4D" stroke-width="2.78599"/>
<path d="M152.533 125.792C152.533 133.933 159.881 140.767 169.249 140.767C178.616 140.767 185.965 133.933 185.965 125.792C185.965 117.651 178.616 110.817 169.249 110.817C159.881 110.817 152.533 117.651 152.533 125.792Z" fill="white" stroke="#4D4D4D" stroke-width="2.78599"/>
<path d="M168.552 118.661C168.552 134.298 164.403 146.223 156.702 154.235C149.009 162.238 137.581 166.537 122.604 166.537C107.627 166.537 96.0066 162.237 88.1268 154.224C80.2439 146.206 75.9181 134.283 75.9181 118.661C75.9181 103.019 80.2585 86.704 88.3012 74.3413C96.3331 61.9949 107.963 53.7047 122.604 53.7047C137.24 53.7047 148.683 61.9884 156.531 74.3292C164.391 86.6896 168.552 103.008 168.552 118.661Z" fill="white" stroke="#4D4D4D" stroke-width="2.78599" stroke-linecap="round"/>
<path d="M122.583 121.265C121.211 126.009 120.494 128.488 120.494 133.424C122.332 134.303 124.09 134.523 127.111 134.498" stroke="#4D4D4D" stroke-width="2.78599" stroke-linecap="round" stroke-linejoin="round"/>
<path d="M98.0442 125.601C99.4801 125.601 100.753 124.824 101.656 123.621C102.558 122.417 103.106 120.771 103.106 118.968C103.106 117.164 102.558 115.518 101.656 114.315C100.753 113.111 99.4801 112.334 98.0442 112.334C96.6084 112.334 95.3351 113.111 94.4326 114.315C93.5302 115.518 92.9823 117.164 92.9823 118.968C92.9823 120.771 93.5302 122.417 94.4326 123.621C95.3351 124.824 96.6084 125.601 98.0442 125.601Z" fill="#4D4D4D" stroke="#4D4D4D" stroke-width="0.696497" stroke-linecap="round"/>
<circle cx="100.028" cy="117.425" r="1.74124" fill="white" stroke="#4D4D4D" stroke-width="0.696497"/>
<path d="M148.192 125.601C149.628 125.601 150.901 124.824 151.804 123.621C152.706 122.417 153.254 120.771 153.254 118.968C153.254 117.164 152.706 115.518 151.804 114.315C150.901 113.111 149.628 112.334 148.192 112.334C146.756 112.334 145.483 113.111 144.58 114.315C143.678 115.518 143.13 117.164 143.13 118.968C143.13 120.771 143.678 122.417 144.58 123.621C145.483 124.824 146.756 125.601 148.192 125.601Z" fill="#4D4D4D" stroke="#4D4D4D" stroke-width="0.696497" stroke-linecap="round"/>
<circle cx="150.176" cy="117.425" r="1.39299" fill="white"/>
<path d="M117.011 145.294C119.101 147.848 124.534 151.423 129.548 145.294" stroke="#4D4D4D" stroke-width="2.78599" stroke-linecap="round" stroke-linejoin="round"/>
<g filter="url(#filter0_f_1_1260)">
<ellipse cx="95.0718" cy="138.329" rx="6.61672" ry="3.83073" fill="#FC9D80"/>
</g>
<g filter="url(#filter1_f_1_1260)">
<ellipse cx="150.095" cy="138.329" rx="6.61672" ry="3.83073" fill="#FC9D80"/>
</g>
<path d="M145.455 79.9473C125.953 107.807 108.051 109.955 75.2216 112.907C81.3146 70.2774 78.3559 55.0977 128.504 53.0082C168.552 55.4459 167.59 77.116 168.552 112.907C156.599 106.414 154.052 102.098 145.455 79.9473Z" fill="#4D4D4D"/>
<path d="M238.116 134.635L238.203 134.137C239.187 128.866 240.478 124.761 242.078 121.821C243.678 118.881 245.616 116.614 247.891 115.018C250.167 113.423 252.803 112.048 255.799 110.893C257.605 110.184 259.277 109.267 260.815 108.14C262.357 106.986 263.66 105.576 264.722 103.91C265.812 102.249 266.549 100.326 266.933 98.1421C267.409 95.4325 267.187 92.9705 266.265 90.7562C265.343 88.542 263.912 86.7086 261.972 85.2561C260.033 83.8036 257.764 82.8489 255.165 82.3921C252.897 81.9936 250.631 82.0798 248.364 82.6505C246.097 83.2213 244.082 84.3919 242.317 86.1625C240.552 87.933 239.272 90.4302 238.478 93.6539L228.026 91.817C229.074 87.1555 230.997 83.3464 233.797 80.3896C236.625 77.4377 240.019 75.3977 243.98 74.2696C247.968 73.1463 252.202 72.9783 256.681 73.7656C261.547 74.6209 265.607 76.3321 268.862 78.8993C272.143 81.4713 274.47 84.6164 275.84 88.3347C277.238 92.0578 277.558 96.0759 276.799 100.389C276.265 103.431 275.311 106.099 273.939 108.395C272.594 110.695 270.88 112.66 268.798 114.289C266.744 115.923 264.369 117.273 261.673 118.339C258.973 119.432 256.742 120.693 254.98 122.122C253.223 123.523 251.811 125.313 250.744 127.491C249.677 129.669 248.815 132.468 248.157 135.887L248.069 136.384L238.116 134.635ZM239.109 160.121C237.063 159.761 235.436 158.72 234.228 156.997C233.02 155.274 232.596 153.389 232.956 151.343C233.316 149.297 234.357 147.67 236.08 146.462C237.803 145.254 239.687 144.83 241.733 145.19C243.779 145.55 245.406 146.591 246.614 148.314C247.822 150.037 248.246 151.921 247.886 153.967C247.648 155.322 247.084 156.506 246.194 157.518C245.331 158.535 244.272 159.289 243.017 159.781C241.794 160.25 240.492 160.364 239.109 160.121Z" fill="black"/>
<defs>
<filter id="filter0_f_1_1260" x="80.0971" y="126.14" width="29.9494" height="24.3774" filterUnits="userSpaceOnUse" color-interpolation-filters="sRGB">
<feFlood flood-opacity="0" result="BackgroundImageFix"/>
<feBlend mode="normal" in="SourceGraphic" in2="BackgroundImageFix" result="shape"/>
<feGaussianBlur stdDeviation="4.17898" result="effect1_foregroundBlur_1_1260"/>
</filter>
<filter id="filter1_f_1_1260" x="135.12" y="126.14" width="29.9494" height="24.3774" filterUnits="userSpaceOnUse" color-interpolation-filters="sRGB">
<feFlood flood-opacity="0" result="BackgroundImageFix"/>
<feBlend mode="normal" in="SourceGraphic" in2="BackgroundImageFix" result="shape"/>
<feGaussianBlur stdDeviation="4.17898" result="effect1_foregroundBlur_1_1260"/>
</filter>
</defs>
</svg>
