<svg width="201" height="201" viewBox="0 0 201 201" fill="none" xmlns="http://www.w3.org/2000/svg">
<path d="M153.532 129.981L141.747 118.196L153.532 106.411C169.803 90.1393 169.803 63.7573 153.532 47.4855C137.26 31.2136 110.877 31.2136 94.6058 47.4855L82.8207 59.2706L71.0356 47.4855L82.8207 35.7003C105.602 12.9197 142.536 12.9197 165.317 35.7003C188.097 58.4809 188.097 95.4151 165.317 118.196L153.532 129.981ZM129.961 153.552L118.176 165.337C95.3958 188.117 58.4609 188.117 35.6803 165.337C12.8997 142.556 12.8997 105.621 35.6803 82.8408L47.4654 71.0556L59.2506 82.8408L47.4654 94.626C31.1936 110.898 31.1936 137.279 47.4654 153.552C63.7372 169.823 90.1191 169.823 106.391 153.552L118.176 141.766L129.961 153.552ZM124.068 65.1631L135.854 76.9482L76.9282 135.873L65.1431 124.088L124.068 65.1631Z" fill="white"/>
</svg>
