<svg width="229" height="239" viewBox="0 0 229 239" fill="none" xmlns="http://www.w3.org/2000/svg">
<path d="M167.455 150.606L162.632 161.217C149.273 190.607 129.324 215.795 104.47 235.234L100.034 238.605L86.1937 219.845C108.54 203.358 126.669 181.768 139.137 156.376L141.409 151.571L146.232 140.959L167.455 150.606ZM118.255 89.8318L139.478 99.4782L120.185 141.924L118.301 145.916C104.093 174.935 81.3491 198.19 53.333 213.047L49.4807 215.021L39.1469 194.123C64.1971 181.736 84.5387 161.594 97.1319 136.136L98.9624 132.278L118.255 89.8318ZM148.16 52.2089C177.462 65.5277 190.42 100.08 177.101 129.383L155.878 119.736C163.87 102.154 156.094 81.423 138.513 73.4319C120.931 65.4403 100.2 73.2149 92.2084 90.7966L77.7387 122.631C66.9569 146.352 48.087 164.779 24.8129 175.101L21.4585 176.52L12.7449 154.898C30.9864 147.547 45.9713 133.951 54.9874 116.166L56.5157 112.985L70.9853 81.1502C84.3043 51.8473 118.856 38.8897 148.16 52.2089ZM167.453 9.76271C220.197 33.7365 243.521 95.9302 219.547 148.676L205.078 180.51C196.888 198.527 186.683 215.297 174.675 230.586L170.607 235.628L152.662 220.746C163.743 207.384 173.258 192.69 181.024 176.855L183.855 170.864L198.324 139.029C216.971 98.005 198.829 49.6319 157.806 30.9858C141.12 23.4018 123.22 21.9031 106.598 25.5543L98.3546 3.54985C120.631 -2.09121 144.905 -0.485808 167.453 9.76271ZM76.5123 11.741L84.7708 33.7399C70.6115 41.5 58.6331 53.5096 50.9663 68.9692L49.7603 71.4901L40.1533 92.7439C34.7537 104.623 26.7296 114.844 16.752 122.788L13.7006 125.102L0.0524459 106.203C7.28173 100.982 13.216 94.1759 17.4309 86.1598L18.9302 83.0974L28.5748 61.8735C38.7875 39.3102 56.0196 22.1393 76.5123 11.741Z" fill="white"/>
</svg>
